<?xml version="1.0" encoding="UTF-8"?>
<svg version="1.1" xmlns="http://www.w3.org/2000/svg" width="512" height="512">
<path d="M0 0 C2.96858157 2.20740681 3.82865791 3.48597373 5 7 C5.08902616 8.37016104 5.12376408 9.74426239 5.12304783 11.11731243 C5.12503888 11.95930052 5.12702993 12.8012886 5.12908131 13.66879147 C5.12616847 14.59388054 5.12325563 15.51896961 5.12025452 16.47209167 C5.12153615 17.94601544 5.12153615 17.94601544 5.12284368 19.44971544 C5.1244967 22.75710397 5.11897998 26.06444228 5.11352539 29.37182617 C5.11324345 31.73677062 5.11340138 34.10171515 5.1139679 36.46665955 C5.11422571 42.23146099 5.10988106 47.99624586 5.10353024 53.76104351 C5.09638804 60.46802617 5.09488562 67.17500645 5.09374207 73.88199238 C5.09155266 85.84312538 5.08489558 97.80425156 5.07543945 109.76538086 C5.06626246 121.3854977 5.05918303 133.00561269 5.05493164 144.62573242 C5.05453756 145.69986857 5.05453756 145.69986857 5.05413551 146.79570445 C5.05283049 150.38806963 5.05156677 153.98043483 5.05032361 157.57280004 C5.03995446 187.38187147 5.0222649 217.19093494 5 247 C6.84704749 246.99585193 6.84704749 246.99585193 8.73140907 246.99162006 C37.96004307 246.9266497 67.18866429 246.87718005 96.41735289 246.84680401 C100.01472627 246.84305188 103.6120995 246.83916892 107.20947266 246.83520508 C108.28373318 246.83402468 108.28373318 246.83402468 109.37969594 246.83282044 C120.97661469 246.81976572 132.57348885 246.79611152 144.17038114 246.76854161 C156.06943791 246.74048923 167.96847131 246.7238241 179.86755979 246.71773452 C186.55127688 246.71398717 193.23491276 246.70460055 199.91859818 246.68280983 C206.20743903 246.66247222 212.49613686 246.65616074 218.78500748 246.66067696 C221.09490231 246.65985054 223.40480185 246.65386881 225.71466827 246.64238358 C228.86567026 246.62748241 232.01613055 246.63103803 235.16714478 246.63923645 C236.08349532 246.63049793 236.99984586 246.6217594 237.9439646 246.61275607 C243.0336699 246.6486086 246.60789873 247.12488302 251 250 C252.59745879 253.19491759 252.50816842 256.53209389 252 260 C249.79259319 262.96858157 248.51402627 263.82865791 245 265 C243.62983896 265.08902616 242.25573761 265.12376408 240.88268757 265.12304783 C239.61970544 265.1260344 239.61970544 265.1260344 238.33120853 265.12908131 C237.40611946 265.12616847 236.48103039 265.12325563 235.52790833 265.12025452 C234.05398456 265.12153615 234.05398456 265.12153615 232.55028456 265.12284368 C229.24289603 265.1244967 225.93555772 265.11897998 222.62817383 265.11352539 C220.26322938 265.11324345 217.89828485 265.11340138 215.53334045 265.1139679 C209.76853901 265.11422571 204.00375414 265.10988106 198.23895649 265.10353024 C191.53197383 265.09638804 184.82499355 265.09488562 178.11800762 265.09374207 C166.15687462 265.09155266 154.19574844 265.08489558 142.23461914 265.07543945 C130.6145023 265.06626246 118.99438731 265.05918303 107.37426758 265.05493164 C106.65817681 265.05466892 105.94208604 265.05440619 105.20429555 265.05413551 C101.61193037 265.05283049 98.01956517 265.05156677 94.42719996 265.05032361 C64.61812853 265.03995446 34.80906506 265.0222649 5 265 C5.00276538 266.23136499 5.00553076 267.46272999 5.00837994 268.73140907 C5.0733503 297.96004307 5.12281995 327.18866429 5.15319599 356.41735289 C5.15694812 360.01472627 5.16083108 363.6120995 5.16479492 367.20947266 C5.16558185 367.92564634 5.16636878 368.64182002 5.16717956 369.37969594 C5.18023428 380.97661469 5.20388848 392.57348885 5.23145839 404.17038114 C5.25951077 416.06943791 5.2761759 427.96847131 5.28226548 439.86755979 C5.28601283 446.55127688 5.29539945 453.23491276 5.31719017 459.91859818 C5.33752778 466.20743903 5.34383926 472.49613686 5.33932304 478.78500748 C5.34014946 481.09490231 5.34613119 483.40480185 5.35761642 485.71466827 C5.37251759 488.86567026 5.36896197 492.01613055 5.36076355 495.16714478 C5.36950207 496.08349532 5.3782406 496.99984586 5.38724393 497.9439646 C5.3513914 503.0336699 4.87511698 506.60789873 2 511 C-1.19491759 512.59745879 -4.53209389 512.50816842 -8 512 C-10.96858157 509.79259319 -11.82865791 508.51402627 -13 505 C-13.08902616 503.62983896 -13.12376408 502.25573761 -13.12304783 500.88268757 C-13.12503888 500.04069948 -13.12702993 499.1987114 -13.12908131 498.33120853 C-13.12616847 497.40611946 -13.12325563 496.48103039 -13.12025452 495.52790833 C-13.12153615 494.05398456 -13.12153615 494.05398456 -13.12284368 492.55028456 C-13.1244967 489.24289603 -13.11897998 485.93555772 -13.11352539 482.62817383 C-13.11324345 480.26322938 -13.11340138 477.89828485 -13.1139679 475.53334045 C-13.11422571 469.76853901 -13.10988106 464.00375414 -13.10353024 458.23895649 C-13.09638804 451.53197383 -13.09488562 444.82499355 -13.09374207 438.11800762 C-13.09155266 426.15687462 -13.08489558 414.19574844 -13.07543945 402.23461914 C-13.06626246 390.6145023 -13.05918303 378.99438731 -13.05493164 367.37426758 C-13.05466892 366.65817681 -13.05440619 365.94208604 -13.05413551 365.20429555 C-13.05283049 361.61193037 -13.05156677 358.01956517 -13.05032361 354.42719996 C-13.03995446 324.61812853 -13.0222649 294.80906506 -13 265 C-14.23136499 265.00276538 -15.46272999 265.00553076 -16.73140907 265.00837994 C-45.96004307 265.0733503 -75.18866429 265.12281995 -104.41735289 265.15319599 C-108.01472627 265.15694812 -111.6120995 265.16083108 -115.20947266 265.16479492 C-115.92564634 265.16558185 -116.64182002 265.16636878 -117.37969594 265.16717956 C-128.97661469 265.18023428 -140.57348885 265.20388848 -152.17038114 265.23145839 C-164.06943791 265.25951077 -175.96847131 265.2761759 -187.86755979 265.28226548 C-194.55127688 265.28601283 -201.23491276 265.29539945 -207.91859818 265.31719017 C-214.20743903 265.33752778 -220.49613686 265.34383926 -226.78500748 265.33932304 C-229.09490231 265.34014946 -231.40480185 265.34613119 -233.71466827 265.35761642 C-236.86567026 265.37251759 -240.01613055 265.36896197 -243.16714478 265.36076355 C-244.08349532 265.36950207 -244.99984586 265.3782406 -245.9439646 265.38724393 C-251.0336699 265.3513914 -254.60789873 264.87511698 -259 262 C-260.59745879 258.80508241 -260.50816842 255.46790611 -260 252 C-257.79259319 249.03141843 -256.51402627 248.17134209 -253 247 C-251.62983896 246.91097384 -250.25573761 246.87623592 -248.88268757 246.87695217 C-248.04069948 246.87496112 -247.1987114 246.87297007 -246.33120853 246.87091869 C-245.40611946 246.87383153 -244.48103039 246.87674437 -243.52790833 246.87974548 C-242.05398456 246.87846385 -242.05398456 246.87846385 -240.55028456 246.87715632 C-237.24289603 246.8755033 -233.93555772 246.88102002 -230.62817383 246.88647461 C-228.26322938 246.88675655 -225.89828485 246.88659862 -223.53334045 246.8860321 C-217.76853901 246.88577429 -212.00375414 246.89011894 -206.23895649 246.89646976 C-199.53197383 246.90361196 -192.82499355 246.90511438 -186.11800762 246.90625793 C-174.15687462 246.90844734 -162.19574844 246.91510442 -150.23461914 246.92456055 C-138.6145023 246.93373754 -126.99438731 246.94081697 -115.37426758 246.94506836 C-114.30013143 246.94546244 -114.30013143 246.94546244 -113.20429555 246.94586449 C-109.61193037 246.94716951 -106.01956517 246.94843323 -102.42719996 246.94967639 C-72.61812853 246.96004554 -42.80906506 246.9777351 -13 247 C-13.00276538 245.76863501 -13.00553076 244.53727001 -13.00837994 243.26859093 C-13.0733503 214.03995693 -13.12281995 184.81133571 -13.15319599 155.58264711 C-13.15694812 151.98527373 -13.16083108 148.3879005 -13.16479492 144.79052734 C-13.16558185 144.07435366 -13.16636878 143.35817998 -13.16717956 142.62030406 C-13.18023428 131.02338531 -13.20388848 119.42651115 -13.23145839 107.82961886 C-13.25951077 95.93056209 -13.2761759 84.03152869 -13.28226548 72.13244021 C-13.28601283 65.44872312 -13.29539945 58.76508724 -13.31719017 52.08140182 C-13.33752778 45.79256097 -13.34383926 39.50386314 -13.33932304 33.21499252 C-13.34014946 30.90509769 -13.34613119 28.59519815 -13.35761642 26.28533173 C-13.37251759 23.13432974 -13.36896197 19.98386945 -13.36076355 16.83285522 C-13.36950207 15.91650468 -13.3782406 15.00015414 -13.38724393 14.0560354 C-13.3513914 8.9663301 -12.87511698 5.39210127 -10 1 C-6.80508241 -0.59745879 -3.46790611 -0.50816842 0 0 Z " fill="white" transform="translate(260,0)"/>
</svg>
